<?xml version="1.0" encoding="iso-8859-1"?>
<!-- Uploaded to: SVG Repo, www.svgrepo.com, Generator: SVG Repo Mixer Tools -->
<!DOCTYPE svg PUBLIC "-//W3C//DTD SVG 1.1//EN" "http://www.w3.org/Graphics/SVG/1.1/DTD/svg11.dtd">
<svg fill="#000000" height="800px" width="800px" version="1.1" id="Capa_1" xmlns="http://www.w3.org/2000/svg" xmlns:xlink="http://www.w3.org/1999/xlink" 
	 viewBox="0 0 485.867 485.867" xml:space="preserve">
<g>
	<path d="M408.766,242.934c44.504-13.032,77.102-54.215,77.102-102.875c0-59.097-48.078-107.176-107.176-107.176H107.178
		C48.08,32.882,0,80.962,0,140.059c0,48.66,32.6,89.843,77.104,102.875C32.6,255.965,0,297.149,0,345.809
		c0,59.097,48.08,107.176,107.178,107.176h271.514c59.098,0,107.176-48.079,107.176-107.176
		C485.867,297.149,453.27,255.965,408.766,242.934z M8.5,140.059c0-54.41,44.266-98.676,98.678-98.676h271.514
		c54.41,0,98.676,44.266,98.676,98.676c0,53.368-42.588,96.947-95.563,98.598c-1.033-0.03,1.043,0,0,0h-277.74
		c-1.043,0,1.033-0.03,0,0C51.088,237.005,8.5,193.427,8.5,140.059z M378.691,444.485H107.178
		c-54.412,0-98.678-44.266-98.678-98.676c0-53.368,42.588-96.973,95.564-98.624c1.033,0.03-1.043,0,0,0c0.313,0-0.293,0.064,0,0
		h277.74c0.295,0.064-0.313,0,0,0c1.043,0-1.033,0.032,0,0.002c52.975,1.651,95.563,45.254,95.563,98.622
		C477.367,400.219,433.102,444.485,378.691,444.485z"/>
	<path d="M150.164,125.194c1.088,0,2.176-0.415,3.004-1.245l32.277-32.278c1.66-1.66,1.66-4.351,0-6.011
		c-1.66-1.659-4.352-1.659-6.01,0l-32.277,32.278c-1.66,1.661-1.66,4.351,0,6.011C147.988,124.779,149.076,125.194,150.164,125.194z
		"/>
	<path d="M222.225,85.66l-75.066,75.067c-1.66,1.66-1.66,4.351,0,6.011c0.83,0.83,1.918,1.245,3.006,1.245
		c1.088,0,2.176-0.415,3.004-1.245l75.066-75.067c1.66-1.66,1.66-4.351,0-6.011C226.576,84.001,223.883,84.001,222.225,85.66z"/>
	<path d="M127.047,218.947h231.771c2.348,0,4.25-1.903,4.25-4.25V65.42c0-2.347-1.902-4.25-4.25-4.25H127.047
		c-2.348,0-4.25,1.903-4.25,4.25v149.276C122.797,217.044,124.699,218.947,127.047,218.947z M131.297,69.67h223.271v140.776H131.297
		V69.67z"/>
	<path d="M358.818,266.92H127.047c-2.348,0-4.25,1.903-4.25,4.25v149.276c0,2.347,1.902,4.25,4.25,4.25h231.771
		c2.348,0,4.25-1.903,4.25-4.25V271.17C363.068,268.823,361.166,266.92,358.818,266.92z M131.297,416.197V309.011h56.166
		c2.348,0,4.25-1.903,4.25-4.25c0-2.347-1.902-4.25-4.25-4.25h-56.166V275.42h223.271v109.087H202.463
		c-2.348,0-4.25,1.903-4.25,4.25c0,2.347,1.902,4.25,4.25,4.25h152.105v23.19H131.297z"/>
	<path d="M92.41,330.201h-8.463v-8.463c0-7.178-5.84-13.018-13.018-13.018h-2.193c-7.178,0-13.017,5.84-13.017,13.018v8.463h-8.463
		c-7.178,0-13.018,5.84-13.018,13.018v2.192c0,7.178,5.84,13.017,13.018,13.017h8.463v8.464c0,7.178,5.84,13.018,13.017,13.018
		h2.193c7.178,0,13.018-5.84,13.018-13.018v-8.464h8.463c7.178,0,13.017-5.84,13.017-13.017v-2.192
		C105.428,336.041,99.588,330.201,92.41,330.201z M96.928,345.411c0,2.491-2.027,4.517-4.517,4.517H79.697
		c-2.348,0-4.25,1.903-4.25,4.25v12.714c0,2.491-2.027,4.518-4.518,4.518h-2.193c-2.49,0-4.517-2.026-4.517-4.518v-12.714
		c0-2.347-1.902-4.25-4.25-4.25H47.256c-2.492,0-4.518-2.026-4.518-4.517v-2.192c0-2.491,2.025-4.518,4.518-4.518h12.713
		c2.348,0,4.25-1.903,4.25-4.25v-12.713c0-2.491,2.027-4.518,4.517-4.518h2.193c2.49,0,4.518,2.027,4.518,4.518v12.713
		c0,2.347,1.902,4.25,4.25,4.25H92.41c2.49,0,4.517,2.027,4.517,4.518V345.411z"/>
	<path d="M435.25,336.701c-3.185,3.185-4.941,7.42-4.941,11.925s1.756,8.74,4.941,11.924c3.184,3.186,7.418,4.94,11.924,4.94
		c4.506,0,8.74-1.754,11.926-4.94c3.186-3.185,4.939-7.42,4.939-11.925c0-4.505-1.754-8.74-4.939-11.925
		c-3.186-3.185-7.42-4.939-11.926-4.939C442.668,331.761,438.434,333.516,435.25,336.701z M455.539,348.625
		c0,2.234-0.871,4.335-2.449,5.915c-1.58,1.58-3.682,2.45-5.916,2.45c-2.234,0-4.334-0.87-5.914-2.45
		c-1.58-1.579-2.451-3.68-2.451-5.914c0-2.234,0.871-4.335,2.451-5.915c1.58-1.58,3.68-2.45,5.914-2.45
		c2.234,0,4.336,0.87,5.916,2.45C454.67,344.291,455.539,346.391,455.539,348.625z"/>
	<path d="M419.545,337.864c4.506,0,8.74-1.754,11.926-4.94c3.186-3.185,4.939-7.42,4.939-11.924
		c0.002-4.505-1.752-8.74-4.938-11.925c-3.186-3.185-7.42-4.939-11.926-4.939c-4.504,0-8.74,1.755-11.924,4.939
		c-3.188,3.186-4.941,7.42-4.941,11.925c0,4.505,1.754,8.74,4.941,11.924C410.807,336.11,415.041,337.864,419.545,337.864z
		 M413.633,315.086c1.58-1.58,3.68-2.45,5.914-2.45s4.336,0.87,5.916,2.45c1.578,1.579,2.449,3.679,2.447,5.913
		c0,2.234-0.869,4.335-2.449,5.915c-1.58,1.581-3.682,2.451-5.916,2.451c-2.232,0-4.334-0.87-5.912-2.45
		c-1.58-1.58-2.451-3.68-2.451-5.914C411.182,318.767,412.053,316.667,413.633,315.086z"/>
	<path d="M419.875,359.061c-4.506,0-8.74,1.754-11.926,4.939c-3.185,3.185-4.939,7.42-4.939,11.925c0,4.505,1.754,8.74,4.939,11.925
		c3.186,3.185,7.42,4.939,11.924,4.939c4.506,0,8.74-1.754,11.928-4.94c3.185-3.185,4.939-7.42,4.939-11.925
		c0-4.505-1.756-8.74-4.941-11.925C428.615,360.815,424.379,359.061,419.875,359.061z M425.791,381.838
		c-1.582,1.581-3.682,2.451-5.918,2.451c-2.233,0-4.334-0.87-5.914-2.45c-3.26-3.261-3.262-8.568,0-11.829
		c1.58-1.58,3.682-2.45,5.916-2.45s4.334,0.87,5.914,2.45c1.58,1.58,2.451,3.68,2.451,5.914
		C428.24,378.159,427.369,380.259,425.791,381.838z"/>
	<path d="M404.172,336.375c-3.186-3.185-7.42-4.939-11.924-4.939c-4.504,0-8.74,1.755-11.926,4.94
		c-3.186,3.185-4.939,7.419-4.939,11.924c0,4.505,1.754,8.74,4.939,11.925c3.186,3.185,7.42,4.938,11.924,4.938
		c4.506,0,8.74-1.754,11.926-4.94C410.748,353.647,410.748,342.949,404.172,336.375z M398.162,354.212
		c-1.58,1.581-3.682,2.451-5.916,2.451s-4.334-0.87-5.914-2.449c-1.58-1.58-2.449-3.68-2.449-5.914c0-2.234,0.871-4.334,2.449-5.914
		c1.582-1.58,3.682-2.451,5.916-2.451c2.234,0,4.334,0.87,5.914,2.45C401.424,345.646,401.424,350.952,398.162,354.212z"/>
	<path d="M107.717,126.189c0-2.347-1.902-4.25-4.25-4.25H35.971c-2.348,0-4.25,1.903-4.25,4.25c0,2.347,1.902,4.25,4.25,4.25h67.496
		C105.814,130.439,107.717,128.537,107.717,126.189z"/>
	<path d="M103.467,154.938H62.969c-2.348,0-4.25,1.903-4.25,4.25c0,2.347,1.902,4.25,4.25,4.25h40.498c2.348,0,4.25-1.903,4.25-4.25
		C107.717,156.84,105.814,154.938,103.467,154.938z"/>
	<path d="M382.453,130.439h67.496c2.348,0,4.25-1.903,4.25-4.25c0-2.347-1.902-4.25-4.25-4.25h-67.496
		c-2.348,0-4.25,1.903-4.25,4.25C378.203,128.537,380.105,130.439,382.453,130.439z"/>
	<path d="M382.453,163.438h40.498c2.348,0,4.25-1.903,4.25-4.25c0-2.347-1.902-4.25-4.25-4.25h-40.498
		c-2.348,0-4.25,1.903-4.25,4.25C378.203,161.535,380.105,163.438,382.453,163.438z"/>
</g>
</svg>